# Blender 4.5.3 LTS
# www.blender.org
mtllib cube.mtl
o Cube
v 0.272224 1.697358 -0.211823
v 0.563157 0.297830 -1.610637
v 1.189904 0.540182 1.136808
v 1.480837 -0.859346 -0.262006
v -1.480837 0.859346 0.262006
v -1.189904 -0.540182 -1.136808
v -0.563157 -0.297830 1.610637
v -0.272224 -1.697358 0.211823
vn -0.1455 0.6998 0.6994
vn 0.4588 -0.5786 0.6743
vn -0.8765 -0.4190 0.2369
vn 0.1455 -0.6998 -0.6994
vn 0.8765 0.4190 -0.2369
vn -0.4588 0.5786 -0.6743
vt 0.875000 0.500000
vt 0.625000 0.750000
vt 0.625000 0.500000
vt 0.375000 1.000000
vt 0.375000 0.750000
vt 0.625000 0.000000
vt 0.375000 0.250000
vt 0.375000 0.000000
vt 0.375000 0.500000
vt 0.125000 0.750000
vt 0.125000 0.500000
vt 0.625000 0.250000
vt 0.875000 0.750000
vt 0.625000 1.000000
s 0
usemtl Material
f 5/1/1 3/2/1 1/3/1
f 3/2/2 8/4/2 4/5/2
f 7/6/3 6/7/3 8/8/3
f 2/9/4 8/10/4 6/11/4
f 1/3/5 4/5/5 2/9/5
f 5/12/6 2/9/6 6/7/6
f 5/1/1 7/13/1 3/2/1
f 3/2/2 7/14/2 8/4/2
f 7/6/3 5/12/3 6/7/3
f 2/9/4 4/5/4 8/10/4
f 1/3/5 3/2/5 4/5/5
f 5/12/6 1/3/6 2/9/6
